<svg width="24" height="24" viewBox="0 0 24 24" fill="none" xmlns="http://www.w3.org/2000/svg">
<g clip-path="url(#clip0_1_5765)">
<path d="M13.1206 5.82858H14.8302C14.9047 5.82858 14.9763 5.79895 15.029 5.7462C15.0818 5.69346 15.1114 5.62192 15.1114 5.54733V3.83775C15.1114 3.76316 15.0818 3.69162 15.029 3.63888C14.9763 3.58613 14.9047 3.5565 14.8302 3.5565H13.1206C13.046 3.5565 12.9744 3.58613 12.9217 3.63888C12.869 3.69162 12.8393 3.76316 12.8393 3.83775V5.54733C12.8393 5.62192 12.869 5.69346 12.9217 5.7462C12.9744 5.79895 13.046 5.82858 13.1206 5.82858ZM13.4018 4.119H14.5489V5.26608H13.4018V4.119ZM9.17 5.82858H10.88C10.9545 5.82858 11.0261 5.79895 11.0788 5.7462C11.1316 5.69346 11.1612 5.62192 11.1612 5.54733V3.83775C11.1612 3.76316 11.1316 3.69162 11.0788 3.63888C11.0261 3.58613 10.9545 3.5565 10.88 3.5565H9.17019C9.0956 3.5565 9.02406 3.58613 8.97131 3.63888C8.91857 3.69162 8.88894 3.76316 8.88894 3.83775V5.54733C8.88894 5.62192 8.91857 5.69346 8.97131 5.7462C9.02406 5.79895 9.0956 5.82858 9.17019 5.82858H9.17ZM9.45125 4.119H10.5987V5.26608H9.45144L9.45125 4.119ZM13.1206 9.32709H14.8302C14.9047 9.32709 14.9763 9.29746 15.029 9.24472C15.0818 9.19197 15.1114 9.12044 15.1114 9.04584V7.33622C15.1114 7.26163 15.0818 7.19009 15.029 7.13734C14.9763 7.0846 14.9047 7.05497 14.8302 7.05497H13.1206C13.046 7.05497 12.9744 7.0846 12.9217 7.13734C12.869 7.19009 12.8393 7.26163 12.8393 7.33622V9.04584C12.8393 9.12044 12.869 9.19197 12.9217 9.24472C12.9744 9.29746 13.046 9.32709 13.1206 9.32709ZM13.4018 7.61747H14.5489V8.76459H13.4018V7.61747ZM9.17 9.32709H10.88C10.9545 9.32709 11.0261 9.29746 11.0788 9.24472C11.1316 9.19197 11.1612 9.12044 11.1612 9.04584V7.33622C11.1612 7.26163 11.1316 7.19009 11.0788 7.13734C11.0261 7.0846 10.9545 7.05497 10.88 7.05497H9.17019C9.0956 7.05497 9.02406 7.0846 8.97131 7.13734C8.91857 7.19009 8.88894 7.26163 8.88894 7.33622V9.04584C8.88894 9.12044 8.91857 9.19197 8.97131 9.24472C9.02406 9.29746 9.0956 9.32709 9.17019 9.32709H9.17ZM9.45125 7.61747H10.5987V8.76459H9.45144L9.45125 7.61747ZM13.1206 12.8256H14.8302C14.9047 12.8256 14.9763 12.7959 15.029 12.7432C15.0818 12.6904 15.1114 12.6189 15.1114 12.5443V10.8347C15.1114 10.7601 15.0818 10.6886 15.029 10.6359C14.9763 10.5831 14.9047 10.5535 14.8302 10.5535H13.1206C13.046 10.5535 12.9744 10.5831 12.9217 10.6359C12.869 10.6886 12.8393 10.7601 12.8393 10.8347V12.5443C12.8393 12.6189 12.869 12.6904 12.9217 12.7432C12.9744 12.7959 13.046 12.8256 13.1206 12.8256ZM13.4018 11.116H14.5489V12.2631H13.4018V11.116ZM9.17 12.8256H10.88C10.9545 12.8256 11.0261 12.7959 11.0788 12.7432C11.1316 12.6904 11.1612 12.6189 11.1612 12.5443V10.8347C11.1612 10.7601 11.1316 10.6886 11.0788 10.6359C11.0261 10.5831 10.9545 10.5535 10.88 10.5535H9.17019C9.0956 10.5535 9.02406 10.5831 8.97131 10.6359C8.91857 10.6886 8.88894 10.7601 8.88894 10.8347V12.5443C8.88894 12.6189 8.91857 12.6904 8.97131 12.7432C9.02406 12.7959 9.0956 12.8256 9.17019 12.8256H9.17ZM9.45125 11.116H10.5987V12.2631H9.45144L9.45125 11.116ZM13.1206 16.3241H14.8302C14.9047 16.3241 14.9763 16.2944 15.029 16.2417C15.0818 16.189 15.1114 16.1174 15.1114 16.0428V14.3333C15.1114 14.2587 15.0818 14.1871 15.029 14.1344C14.9763 14.0816 14.9047 14.052 14.8302 14.052H13.1206C13.046 14.052 12.9744 14.0816 12.9217 14.1344C12.869 14.1871 12.8393 14.2587 12.8393 14.3333V16.0428C12.8393 16.1174 12.869 16.189 12.9217 16.2417C12.9744 16.2944 13.046 16.3241 13.1206 16.3241ZM13.4018 14.6145H14.5489V15.7616H13.4018V14.6145ZM9.17 16.3241H10.88C10.9545 16.3241 11.0261 16.2944 11.0788 16.2417C11.1316 16.189 11.1612 16.1174 11.1612 16.0428V14.3333C11.1612 14.2587 11.1316 14.1871 11.0788 14.1344C11.0261 14.0816 10.9545 14.052 10.88 14.052H9.17019C9.0956 14.052 9.02406 14.0816 8.97131 14.1344C8.91857 14.1871 8.88894 14.2587 8.88894 14.3333V16.0428C8.88894 16.1174 8.91857 16.189 8.97131 16.2417C9.02406 16.2944 9.0956 16.3241 9.17019 16.3241H9.17ZM9.45125 14.6145H10.5987V15.7616H9.45144L9.45125 14.6145ZM13.1206 19.8227H14.8302C14.9047 19.8227 14.9763 19.7931 15.029 19.7403C15.0818 19.6876 15.1114 19.616 15.1114 19.5414V17.8319C15.1114 17.7573 15.0818 17.6858 15.029 17.633C14.9763 17.5803 14.9047 17.5507 14.8302 17.5507H13.1206C13.046 17.5507 12.9744 17.5803 12.9217 17.633C12.869 17.6858 12.8393 17.7573 12.8393 17.8319V19.5414C12.8393 19.616 12.869 19.6876 12.9217 19.7403C12.9744 19.7931 13.046 19.8227 13.1206 19.8227ZM13.4018 18.1132H14.5489V19.2602H13.4018V18.1132ZM9.17019 19.8227H10.88C10.9545 19.8227 11.0261 19.7931 11.0788 19.7403C11.1316 19.6876 11.1612 19.616 11.1612 19.5414V17.8319C11.1612 17.7573 11.1316 17.6858 11.0788 17.633C11.0261 17.5803 10.9545 17.5507 10.88 17.5507H9.17019C9.0956 17.5507 9.02406 17.5803 8.97131 17.633C8.91857 17.6858 8.88894 17.7573 8.88894 17.8319V19.5414C8.88894 19.616 8.91857 19.6876 8.97131 19.7403C9.02406 19.7931 9.0956 19.8227 9.17019 19.8227ZM9.45144 18.1132H10.5987V19.2602H9.45144V18.1132ZM22.9146 22.3191H21.8005V4.69256C21.8005 4.61797 21.7708 4.54643 21.7181 4.49369C21.6653 4.44094 21.5938 4.41131 21.5192 4.41131H16.9275V1.23206C16.9275 1.15747 16.8979 1.08593 16.8452 1.03319C16.7924 0.980444 16.7209 0.950812 16.6463 0.950812H15.1116V0.328125C15.1116 0.253533 15.082 0.181996 15.0292 0.129251C14.9765 0.0765066 14.9049 0.046875 14.8303 0.046875H9.17019C9.0956 0.046875 9.02406 0.0765066 8.97131 0.129251C8.91857 0.181996 8.88894 0.253533 8.88894 0.328125V0.950812H7.35425C7.27966 0.950812 7.20812 0.980444 7.15538 1.03319C7.10263 1.08593 7.073 1.15747 7.073 1.23206V4.41113H2.48131C2.40672 4.41113 2.33518 4.44076 2.28244 4.4935C2.22969 4.54625 2.20006 4.61778 2.20006 4.69238V22.3189H1.08594C1.01135 22.3189 0.939808 22.3486 0.887064 22.4013C0.834319 22.454 0.804688 22.5256 0.804688 22.6002V23.6704C0.804688 23.745 0.834319 23.8165 0.887064 23.8692C0.939808 23.922 1.01135 23.9516 1.08594 23.9516H22.9146C22.9892 23.9516 23.0607 23.922 23.1135 23.8692C23.1662 23.8165 23.1958 23.745 23.1958 23.6704V22.6002C23.1958 22.5256 23.1662 22.454 23.1135 22.4013C23.0607 22.3486 22.9892 22.3189 22.9146 22.3189V22.3191ZM21.238 4.97381V22.3189H16.9275V4.97381H21.238ZM9.45144 0.609375H14.5491V0.950812H9.45144V0.609375ZM16.365 1.51331V22.3189H7.6355V1.51331H16.365ZM2.76256 4.97381H7.073V22.3189H2.76256V4.97381ZM22.6333 23.3891H1.36719V22.8814H22.6333V23.3891ZM18.2279 19.8227H19.9376C20.0122 19.8227 20.0837 19.7931 20.1364 19.7403C20.1892 19.6876 20.2188 19.616 20.2188 19.5414V17.8319C20.2188 17.7573 20.1892 17.6858 20.1364 17.633C20.0837 17.5803 20.0122 17.5507 19.9376 17.5507H18.2279C18.1533 17.5507 18.0818 17.5803 18.0291 17.633C17.9763 17.6858 17.9467 17.7573 17.9467 17.8319V19.5414C17.9467 19.616 17.9763 19.6876 18.0291 19.7403C18.0818 19.7931 18.1533 19.8227 18.2279 19.8227ZM18.5092 18.1132H19.6563V19.2602H18.5092V18.1132ZM18.2279 16.3242H19.9376C20.0122 16.3242 20.0837 16.2946 20.1364 16.2418C20.1892 16.1891 20.2188 16.1176 20.2188 16.043V14.3333C20.2188 14.2587 20.1892 14.1871 20.1364 14.1344C20.0837 14.0816 20.0122 14.052 19.9376 14.052H18.2279C18.1533 14.052 18.0818 14.0816 18.0291 14.1344C17.9763 14.1871 17.9467 14.2587 17.9467 14.3333V16.0428C17.9467 16.1174 17.9763 16.189 18.0291 16.2417C18.0818 16.2944 18.1533 16.3241 18.2279 16.3241V16.3242ZM18.5092 14.6146H19.6563V15.7617H18.5092V14.6146ZM18.2279 12.8257H19.9376C20.0122 12.8257 20.0837 12.7961 20.1364 12.7433C20.1892 12.6906 20.2188 12.619 20.2188 12.5445V10.8347C20.2188 10.7601 20.1892 10.6886 20.1364 10.6359C20.0837 10.5831 20.0122 10.5535 19.9376 10.5535H18.2279C18.1533 10.5535 18.0818 10.5831 18.0291 10.6359C17.9763 10.6886 17.9467 10.7601 17.9467 10.8347V12.5443C17.9467 12.6189 17.9763 12.6904 18.0291 12.7432C18.0818 12.7959 18.1533 12.8256 18.2279 12.8256V12.8257ZM18.5092 11.1161H19.6563V12.2632H18.5092V11.1161ZM18.2279 9.32723H19.9376C20.0122 9.32723 20.0837 9.2976 20.1364 9.24486C20.1892 9.19211 20.2188 9.12058 20.2188 9.04598V7.33622C20.2188 7.26163 20.1892 7.19009 20.1364 7.13734C20.0837 7.0846 20.0122 7.05497 19.9376 7.05497H18.2279C18.1533 7.05497 18.0818 7.0846 18.0291 7.13734C17.9763 7.19009 17.9467 7.26163 17.9467 7.33622V9.04584C17.9467 9.12044 17.9763 9.19197 18.0291 9.24472C18.0818 9.29746 18.1533 9.32709 18.2279 9.32709V9.32723ZM18.5092 7.61761H19.6563V8.76473H18.5092V7.61761ZM5.77259 17.5505H4.06297C3.98838 17.5505 3.91684 17.5801 3.8641 17.6329C3.81135 17.6856 3.78172 17.7572 3.78172 17.8318V19.5414C3.78172 19.616 3.81135 19.6876 3.8641 19.7403C3.91684 19.7931 3.98838 19.8227 4.06297 19.8227H5.77259C5.84719 19.8227 5.91872 19.7931 5.97147 19.7403C6.02421 19.6876 6.05384 19.616 6.05384 19.5414V17.8319C6.05386 17.795 6.0466 17.7584 6.03248 17.7242C6.01835 17.6901 5.99764 17.6591 5.97152 17.6329C5.9454 17.6068 5.91439 17.5861 5.88026 17.5719C5.84612 17.5578 5.80954 17.5505 5.77259 17.5505ZM5.49134 19.26H4.34422V18.113H5.49134V19.26ZM5.77259 14.052H4.06297C3.98838 14.052 3.91684 14.0816 3.8641 14.1344C3.81135 14.1871 3.78172 14.2587 3.78172 14.3333V16.0428C3.78172 16.1174 3.81135 16.189 3.8641 16.2417C3.91684 16.2944 3.98838 16.3241 4.06297 16.3241H5.77259C5.84719 16.3241 5.91872 16.2944 5.97147 16.2417C6.02421 16.189 6.05384 16.1174 6.05384 16.0428V14.3333C6.05384 14.2587 6.02421 14.1871 5.97147 14.1344C5.91872 14.0816 5.84719 14.052 5.77259 14.052ZM5.49134 15.7616H4.34422V14.6145H5.49134V15.7616ZM5.77259 10.5535H4.06297C3.98838 10.5535 3.91684 10.5831 3.8641 10.6359C3.81135 10.6886 3.78172 10.7601 3.78172 10.8347V12.5443C3.78172 12.6189 3.81135 12.6904 3.8641 12.7432C3.91684 12.7959 3.98838 12.8256 4.06297 12.8256H5.77259C5.84719 12.8256 5.91872 12.7959 5.97147 12.7432C6.02421 12.6904 6.05384 12.6189 6.05384 12.5443V10.8347C6.05384 10.7601 6.02421 10.6886 5.97147 10.6359C5.91872 10.5831 5.84719 10.5535 5.77259 10.5535ZM5.49134 12.2631H4.34422V11.116H5.49134V12.2631ZM5.77259 7.05497H4.06297C3.98838 7.05497 3.91684 7.0846 3.8641 7.13734C3.81135 7.19009 3.78172 7.26163 3.78172 7.33622V9.04584C3.78172 9.12044 3.81135 9.19197 3.8641 9.24472C3.91684 9.29746 3.98838 9.32709 4.06297 9.32709H5.77259C5.84719 9.32709 5.91872 9.29746 5.97147 9.24472C6.02421 9.19197 6.05384 9.12044 6.05384 9.04584V7.33622C6.05384 7.26163 6.02421 7.19009 5.97147 7.13734C5.91872 7.0846 5.84719 7.05497 5.77259 7.05497ZM5.49134 8.76459H4.34422V7.61747H5.49134V8.76459Z" fill="#667085"/>
</g>
<defs>
<clipPath id="clip0_1_5765">
<rect width="24" height="24" fill="white"/>
</clipPath>
</defs>
</svg>
