<svg width="24" height="24" viewBox="0 0 24 24" fill="none" xmlns="http://www.w3.org/2000/svg">
<g clip-path="url(#clip0_1_5753)">
<path d="M22.8 2.8C22.1373 2.8 21.6 3.33726 21.6 4V5.2104C21.2558 4.94568 20.8342 4.80147 20.4 4.8H18.4V2.4C18.4 2.17909 18.2209 2 18 2C17.7791 2 17.6 2.17909 17.6 2.4V2.8H14.4V2.4C14.4 2.17909 14.2209 2 14 2C13.7791 2 13.6 2.17909 13.6 2.4V4.8H8.2888C8.14704 4.5533 7.88453 4.40086 7.6 4.4H7.4312C7.0228 3.46274 5.97233 2.98548 4.99775 3.29441C4.02316 3.60335 3.43947 4.59862 3.6456 5.6C3.21738 5.54298 2.78203 5.62071 2.4 5.8224V1.2C2.4 0.537258 1.86274 0 1.2 0C0.537258 0 1.6e-08 0.537258 0 1.2V22.8C0 23.4627 0.537258 24 1.2 24C1.86274 24 2.4 23.4627 2.4 22.8V20.8H21.6V22.8C21.6 23.4627 22.1373 24 22.8 24C23.4627 24 24 23.4627 24 22.8V4C24 3.33726 23.4627 2.8 22.8 2.8ZM6.8 18.4V14.8H7.6V18.4H6.8ZM2.4 18.4V16.8C2.4 16.3582 2.75817 16 3.2 16H4.0032C4.46498 16.619 5.24427 16.9134 6 16.7544V18.4H2.4ZM13.6 9.6V10.4H2.4V9.6H13.6ZM17.6 6.8H14.4V5.6H17.6V6.8ZM14.4 7.6H17.6V8.8H14.4V7.6ZM17.6 9.6V10.4H14.4V9.6H17.6ZM17.6 16.4H14.4V15.2H17.6V16.4ZM14.4 14.4V13.2H17.6V14.4H14.4ZM8.2888 14.4C8.14704 14.1533 7.88453 14.0009 7.6 14H7.4312C7.0228 13.0627 5.97233 12.5855 4.99775 12.8944C4.02316 13.2033 3.43947 14.1986 3.6456 15.2C3.21738 15.143 2.78203 15.2207 2.4 15.4224V11.2H13.6V14.4H8.2888ZM4.5624 15.4C4.24502 14.858 4.40042 14.1629 4.91837 13.8077C5.43633 13.4525 6.14074 13.5579 6.532 14.0492C6.21408 14.1622 6.00126 14.4626 6 14.8V15.926C5.45674 16.1097 4.85881 15.8909 4.5624 15.4ZM17.6 12.4H14.4V11.2H17.6V12.4ZM18.4 11.2H21.6V14.8104C21.2558 14.5457 20.8342 14.4015 20.4 14.4H18.4V11.2ZM21.6 10.4H18.4V9.6H21.6V10.4ZM8.4 15.2H13.6V18.4H8.4V15.2ZM14.4 17.2H17.6V18.4H14.4V17.2ZM18.4 15.2H20.4C21.0627 15.2 21.6 15.7373 21.6 16.4V18.4H18.4V15.2ZM20.4 5.6C21.0627 5.6 21.6 6.13726 21.6 6.8V8.8H18.4V5.6H20.4ZM14.4 3.6H17.6V4.8H14.4V3.6ZM13.6 8.8H8.4V5.6H13.6V8.8ZM7.6 8.8H6.8V5.2H7.6V8.8ZM5.6 4C5.96284 4.00047 6.30579 4.16591 6.532 4.4496C6.21422 4.56258 6.00142 4.86273 6 5.2V6.326C5.45674 6.51004 4.8586 6.29119 4.5624 5.8C4.34819 5.42897 4.34803 4.97188 4.56199 4.60071C4.77595 4.22953 5.17157 4.00058 5.6 4ZM3.2 6.4H4.0032C4.46498 7.01902 5.24427 7.31343 6 7.1544V8.8H2.4V7.2C2.4 6.75817 2.75817 6.4 3.2 6.4ZM1.6 22.8C1.6 23.0209 1.42091 23.2 1.2 23.2C0.979086 23.2 0.8 23.0209 0.8 22.8V1.2C0.8 0.979086 0.979086 0.8 1.2 0.8C1.42091 0.8 1.6 0.979086 1.6 1.2V22.8ZM2.4 19.2H13.6V20H2.4V19.2ZM14.4 20V19.2H17.6V20H14.4ZM18.4 20V19.2H21.6V20H18.4ZM23.2 22.8C23.2 23.0209 23.0209 23.2 22.8 23.2C22.5791 23.2 22.4 23.0209 22.4 22.8V4C22.4 3.77909 22.5791 3.6 22.8 3.6C23.0209 3.6 23.2 3.77909 23.2 4V22.8Z" fill="#667085"/>
</g>
<defs>
<clipPath id="clip0_1_5753">
<rect width="24" height="24" fill="white"/>
</clipPath>
</defs>
</svg>
