<svg width="24" height="24" viewBox="0 0 24 24" fill="none" xmlns="http://www.w3.org/2000/svg">
<g clip-path="url(#clip0_1_5730)">
<path d="M23.9999 2.99991V0H0V2.99991H0.999969L1.03543 22.9999H0V23.9999H23.9999V22.9999H22.9647L22.9999 2.99991H23.9999ZM0.999969 0.999969H22.9999V1.99994H0.999969V0.999969ZM5.49994 22.9999V15.9999H9.50003V22.9999H5.49994ZM10.5 22.9999V15H4.49997V22.9999H2.03369L2.00165 13.4999H21.9983L21.9662 22.9999H10.5ZM9.50003 12.4999H5.49994V5.49994H9.50003V12.4999ZM21.9662 12.4999H10.5V4.49997H4.49997V12.4999H2.03369L2.00165 2.99991H21.9983L21.9662 12.4999Z" fill="#667085"/>
<path d="M19.4999 4.49997H13.4999V10.5H19.4999V4.49997ZM18.5 6.97479H16.9999V5.49994H18.5V6.97479ZM15.9999 5.49994V6.97479H14.5001V5.49994H15.9999ZM14.5001 7.97476H15.9999V9.50003H14.5001V7.97476ZM16.9999 9.50003V7.97476H18.5V9.50003H16.9999Z" fill="#667085"/>
<path d="M13.4999 21H19.4999V15H13.4999V21ZM14.5001 18.4748H15.9999V20H14.5001V18.4748ZM16.9999 20V18.4748H18.5V20H16.9999ZM18.5 17.4748H16.9999V15.9999H18.5V17.4748ZM15.9999 15.9999V17.4748H14.5001V15.9999H15.9999Z" fill="#667085"/>
</g>
<defs>
<clipPath id="clip0_1_5730">
<rect width="24" height="24" fill="white"/>
</clipPath>
</defs>
</svg>
