<svg width="24" height="24" viewBox="0 0 24 24" fill="none" xmlns="http://www.w3.org/2000/svg">
<path d="M20.8 13.76V3.2C21.2418 3.2 21.6 2.84183 21.6 2.4V0.8C21.6 0.358172 21.2418 0 20.8 0H13.6C13.1582 0 12.8 0.358172 12.8 0.8V2.4C12.8 2.84183 13.1582 3.2 13.6 3.2V6.3832L7.6036 0.24C7.45264 0.0868203 7.24667 0.000399556 7.0316 0H0.8C0.358172 0 0 0.358172 0 0.8V23.2C0 23.6418 0.358172 24 0.8 24H23.2C23.6418 24 24 23.6418 24 23.2V17.3628C24.0008 17.1535 23.919 16.9523 23.7724 16.8028L20.8 13.76ZM13.6 0.8H20.8V2.4H13.6V0.8ZM14.4 4.8H16.4C16.6209 4.8 16.8 4.62091 16.8 4.4C16.8 4.17909 16.6209 4 16.4 4H14.4V3.2H20V4H18C17.7791 4 17.6 4.17909 17.6 4.4C17.6 4.62091 17.7791 4.8 18 4.8H20V12.9396L14.4 7.2028V4.8ZM7.0316 0.8L23.2 17.3628V18.6764L5.7496 0.8H7.0316ZM0.8 2.8H6.584L7.3648 3.6H0.8V2.8ZM4.6316 0.8L5.8028 2H0.8V0.8H4.6316ZM2.4 20.8V19.2H12.4C12.6209 19.2 12.8 19.3791 12.8 19.6V20.8H2.4ZM2.4 18.4C2.4 17.9582 2.75817 17.6 3.2 17.6H4C4.44183 17.6 4.8 17.9582 4.8 18.4H2.4ZM2.4 21.6H12.4V23.2H2.4V21.6ZM15.2 23.2V20.4H21.6V23.2H15.2ZM22.4 23.2V20.4C22.4 19.9582 22.0418 19.6 21.6 19.6H15.2C14.7582 19.6 14.4 19.9582 14.4 20.4V23.2H13.2V21.4888C13.4467 21.347 13.5991 21.0845 13.6 20.8V19.6C13.6 18.9373 13.0627 18.4 12.4 18.4H5.6C5.6 17.5163 4.88366 16.8 4 16.8H3.2C2.9183 16.8017 2.64214 16.8784 2.4 17.0224V14.8C2.4 14.5791 2.22091 14.4 2 14.4C1.77909 14.4 1.6 14.5791 1.6 14.8V23.2H0.8V4.4H8.1456L23.2 19.822V23.2H22.4Z" fill="#667085"/>
<path d="M10.3996 8H2.39961C1.95778 8 1.59961 8.35817 1.59961 8.8V12.8C1.59961 13.2418 1.95778 13.6 2.39961 13.6H10.3996C10.8414 13.6 11.1996 13.2418 11.1996 12.8V8.8C11.1996 8.35817 10.8414 8 10.3996 8ZM2.39961 8.8H5.99961V12.8H2.39961V8.8ZM6.79961 12.8V8.8H10.3996V12.8H6.79961Z" fill="#667085"/>
</svg>
