<svg width="24" height="24" viewBox="0 0 24 24" fill="none" xmlns="http://www.w3.org/2000/svg">
<path d="M21 22C20.724 22 20.5 21.776 20.5 21.5V18H3.5V21.5C3.5 21.776 3.276 22 3 22C2.724 22 2.5 21.776 2.5 21.5V17.5C2.5 17.224 2.724 17 3 17H21C21.276 17 21.5 17.224 21.5 17.5V21.5C21.5 21.776 21.276 22 21 22Z" fill="#667085"/>
<path d="M21 21H3C2.724 21 2.5 20.776 2.5 20.5C2.5 20.224 2.724 20 3 20H21C21.276 20 21.5 20.224 21.5 20.5C21.5 20.776 21.276 21 21 21Z" fill="#667085"/>
<path d="M21.0002 18.0011C20.8062 18.0011 20.6252 17.8871 20.5432 17.7041L16.5432 8.70408C16.4312 8.45208 16.5442 8.15608 16.7972 8.04408C17.0492 7.93008 17.3452 8.04508 17.4572 8.29808L20.5002 15.1451V14.5011C20.5002 14.2251 20.7242 14.0011 21.0002 14.0011C21.2762 14.0011 21.5002 14.2251 21.5002 14.5011V17.5011C21.5002 17.7371 21.3352 17.9411 21.1042 17.9901C21.0692 17.9981 21.0342 18.0011 21.0002 18.0011Z" fill="#667085"/>
<path d="M3 18C2.966 18 2.931 17.997 2.896 17.989C2.665 17.94 2.5 17.736 2.5 17.5V14.5C2.5 14.224 2.724 14 3 14C3.276 14 3.5 14.224 3.5 14.5V15.144L6.543 8.297C6.624 8.116 6.802 8 7 8H8.5C8.776 8 9 8.224 9 8.5C9 8.776 8.776 9 8.5 9H7.325L3.457 17.703C3.375 17.886 3.194 18 3 18Z" fill="#667085"/>
<path d="M17 9H15.5C15.224 9 15 8.776 15 8.5C15 8.224 15.224 8 15.5 8H16.5V4.5C16.5 3.673 15.827 3 15 3H9C8.173 3 7.5 3.673 7.5 4.5V8.5C7.5 8.776 7.276 9 7 9C6.724 9 6.5 8.776 6.5 8.5V4.5C6.5 3.122 7.622 2 9 2H15C16.378 2 17.5 3.122 17.5 4.5V8.5C17.5 8.776 17.276 9 17 9Z" fill="#667085"/>
<path d="M14.3666 11H9.63262C9.20262 11 8.79262 10.815 8.50762 10.493C8.22362 10.17 8.09062 9.741 8.14462 9.314L8.39462 7.314C8.48762 6.565 9.12762 6 9.88262 6H14.1166C14.8716 6 15.5116 6.565 15.6046 7.314L15.8546 9.314C15.9076 9.741 15.7756 10.17 15.4906 10.493C15.2066 10.815 14.7966 11 14.3666 11ZM9.88262 7C9.63062 7 9.41762 7.188 9.38662 7.438L9.13662 9.438C9.11862 9.583 9.16162 9.722 9.25762 9.831C9.35362 9.94 9.48662 10 9.63262 10H14.3666C14.5126 10 14.6456 9.94 14.7416 9.831C14.8376 9.722 14.8806 9.582 14.8626 9.438L14.6126 7.438C14.5816 7.188 14.3686 7 14.1166 7H9.88262Z" fill="#667085"/>
</svg>
