<svg width="24" height="24" viewBox="0 0 24 24" fill="none" xmlns="http://www.w3.org/2000/svg">
<path d="M23.306 5.11038L17.2327 2.36913C17.1346 2.32487 17.0222 2.32487 16.9242 2.36913L14.9147 3.27611V3.14284C14.9147 2.93575 14.7468 2.76784 14.5397 2.76784H12.9912C12.7841 2.76784 12.6162 2.93575 12.6162 3.14284V4.31355L12.0001 4.59166L7.07607 2.36913C6.97801 2.32487 6.8656 2.32487 6.76754 2.36913L4.7581 3.27611V3.14284C4.7581 2.93575 4.5902 2.76784 4.3831 2.76784H2.83459C2.62749 2.76784 2.45959 2.93575 2.45959 3.14284V4.31355L0.694182 5.11038C0.459291 5.21641 0.333197 5.46672 0.387525 5.71909C0.441854 5.97147 0.659775 6.14772 0.917447 6.14772H1.46846V11.8713H0.984947C0.777854 11.8713 0.609947 12.0393 0.609947 12.2463V13.534C0.609947 13.7411 0.777854 13.909 0.984947 13.909H1.46846V19.6327H0.984947C0.777854 19.6327 0.609947 19.8006 0.609947 20.0077V21.2954C0.609947 21.5025 0.777854 21.6704 0.984947 21.6704H23.0152C23.2223 21.6704 23.3902 21.5025 23.3902 21.2954V20.0077C23.3902 19.8006 23.2223 19.6327 23.0152 19.6327H22.5317V13.9091H23.0152C23.2223 13.9091 23.3902 13.7412 23.3902 13.5341V12.2464C23.3902 12.0393 23.2223 11.8714 23.0152 11.8714H22.5317V6.14777H23.0827C23.3404 6.14777 23.5583 5.97147 23.6127 5.71909C23.667 5.46672 23.5409 5.21641 23.306 5.11038ZM13.3662 3.51784H14.1647V3.61464L13.3662 3.97506V3.51784ZM3.20959 3.51784H4.0081V3.61464L3.20959 3.97506V3.51784ZM1.87726 5.39927L6.92185 3.12236L11.6251 5.24523V11.8714H2.21846V5.77277C2.21846 5.57702 2.06856 5.41633 1.87726 5.39927ZM1.35995 12.6214H11.6251V13.1591H1.35995V12.6214ZM2.21846 13.9091H11.6251V19.6328H8.98787V16.2718C8.98787 16.0647 8.81996 15.8968 8.61287 15.8968H5.23074C5.02365 15.8968 4.85574 16.0647 4.85574 16.2718V19.6328H2.21846V13.9091ZM5.60574 19.6328V16.6468H8.23787V19.6328H5.60574ZM22.6402 20.9205H1.35995V20.3828H22.6402V20.9205ZM18.3945 19.6328H15.7624V16.6468H18.3945V19.6328ZM21.7817 19.6328H19.1445V16.2718C19.1445 16.0647 18.9766 15.8968 18.7695 15.8968H15.3874C15.1803 15.8968 15.0124 16.0647 15.0124 16.2718V19.6328H12.3751V13.9091H21.7817V19.6328ZM22.6402 13.1591H12.3751V12.6214H22.6402V13.1591ZM12.3751 11.8714V5.24523L17.0784 3.12236L22.123 5.39927C21.9317 5.41633 21.7817 5.57702 21.7817 5.77277V11.8714H12.3751ZM4.68938 10.7593H9.15423C9.36132 10.7593 9.52923 10.5914 9.52923 10.3843V7.89227C9.52923 6.45456 8.35956 5.28484 6.92181 5.28484C5.4841 5.28484 4.31438 6.45452 4.31438 7.89227V10.3843C4.31438 10.5914 4.48224 10.7593 4.68938 10.7593ZM5.06438 8.39711H6.54681V10.0093H5.06438V8.39711ZM7.29676 10.0093V8.39711H8.77918V10.0093H7.29676ZM8.76249 7.64711H7.29676V6.07295C8.06335 6.23073 8.65852 6.86247 8.76249 7.64711ZM6.54676 6.07295V7.64711H5.08103C5.18504 6.86247 5.78017 6.23073 6.54676 6.07295ZM17.0784 5.28489C15.6406 5.28489 14.471 6.45456 14.471 7.89231V10.3843C14.471 10.5914 14.6389 10.7593 14.846 10.7593H19.3108C19.5179 10.7593 19.6858 10.5914 19.6858 10.3843V7.89231C19.6858 6.45456 18.5161 5.28489 17.0784 5.28489ZM18.9191 7.64711H17.4534V6.07295C18.22 6.23073 18.8151 6.86247 18.9191 7.64711ZM16.7034 6.07295V7.64711H15.2377C15.3417 6.86247 15.9368 6.23073 16.7034 6.07295ZM15.221 8.39711H16.7034V10.0093H15.221V8.39711ZM17.4534 10.0093V8.39711H18.9358V10.0093H17.4534Z" fill="#667085"/>
</svg>
